<mxfile host="app.diagrams.net" agent="Mozilla/5.0 (Windows NT 10.0; Win64; x64; rv:138.0) Gecko/20100101 Firefox/138.0" version="26.2.14">
  <diagram name="Page-1" id="zg4TGeOSf0SbbY-pqdMQ">
    <mxGraphModel dx="1226" dy="1751" grid="1" gridSize="10" guides="1" tooltips="1" connect="1" arrows="1" fold="1" page="1" pageScale="1" pageWidth="850" pageHeight="1100" math="0" shadow="0">
      <root>
        <mxCell id="0" />
        <mxCell id="1" parent="0" />
        <mxCell id="v6jn_k5VwR1Lf-YIvK5P-26" value="" style="edgeStyle=orthogonalEdgeStyle;rounded=0;orthogonalLoop=1;jettySize=auto;html=1;" edge="1" parent="1" source="v6jn_k5VwR1Lf-YIvK5P-2" target="v6jn_k5VwR1Lf-YIvK5P-8">
          <mxGeometry relative="1" as="geometry" />
        </mxCell>
        <mxCell id="v6jn_k5VwR1Lf-YIvK5P-28" value="" style="edgeStyle=orthogonalEdgeStyle;rounded=0;orthogonalLoop=1;jettySize=auto;html=1;" edge="1" parent="1" source="v6jn_k5VwR1Lf-YIvK5P-2" target="v6jn_k5VwR1Lf-YIvK5P-27">
          <mxGeometry relative="1" as="geometry" />
        </mxCell>
        <mxCell id="v6jn_k5VwR1Lf-YIvK5P-2" value="" style="strokeWidth=2;html=1;shape=mxgraph.flowchart.decision;whiteSpace=wrap;" vertex="1" parent="1">
          <mxGeometry x="340" y="90" width="100" height="100" as="geometry" />
        </mxCell>
        <mxCell id="v6jn_k5VwR1Lf-YIvK5P-3" value="surveyNo found in db" style="text;html=1;align=center;verticalAlign=middle;whiteSpace=wrap;rounded=0;" vertex="1" parent="1">
          <mxGeometry x="360" y="125" width="60" height="30" as="geometry" />
        </mxCell>
        <mxCell id="v6jn_k5VwR1Lf-YIvK5P-25" value="" style="edgeStyle=orthogonalEdgeStyle;rounded=0;orthogonalLoop=1;jettySize=auto;html=1;" edge="1" parent="1" source="v6jn_k5VwR1Lf-YIvK5P-7" target="v6jn_k5VwR1Lf-YIvK5P-11">
          <mxGeometry relative="1" as="geometry" />
        </mxCell>
        <mxCell id="v6jn_k5VwR1Lf-YIvK5P-7" value="" style="rounded=1;whiteSpace=wrap;html=1;" vertex="1" parent="1">
          <mxGeometry x="140" y="110" width="120" height="60" as="geometry" />
        </mxCell>
        <mxCell id="v6jn_k5VwR1Lf-YIvK5P-8" value="Yes" style="text;html=1;align=center;verticalAlign=middle;whiteSpace=wrap;rounded=0;" vertex="1" parent="1">
          <mxGeometry x="170" y="125" width="60" height="30" as="geometry" />
        </mxCell>
        <mxCell id="v6jn_k5VwR1Lf-YIvK5P-24" value="" style="edgeStyle=orthogonalEdgeStyle;rounded=0;orthogonalLoop=1;jettySize=auto;html=1;" edge="1" parent="1" source="v6jn_k5VwR1Lf-YIvK5P-11" target="v6jn_k5VwR1Lf-YIvK5P-14">
          <mxGeometry relative="1" as="geometry" />
        </mxCell>
        <mxCell id="v6jn_k5VwR1Lf-YIvK5P-11" value="" style="rhombus;whiteSpace=wrap;html=1;" vertex="1" parent="1">
          <mxGeometry x="160" y="270" width="80" height="80" as="geometry" />
        </mxCell>
        <mxCell id="v6jn_k5VwR1Lf-YIvK5P-22" value="" style="edgeStyle=orthogonalEdgeStyle;rounded=0;orthogonalLoop=1;jettySize=auto;html=1;" edge="1" parent="1" source="v6jn_k5VwR1Lf-YIvK5P-12" target="v6jn_k5VwR1Lf-YIvK5P-21">
          <mxGeometry relative="1" as="geometry" />
        </mxCell>
        <mxCell id="v6jn_k5VwR1Lf-YIvK5P-12" value="record data changed" style="text;html=1;align=center;verticalAlign=middle;whiteSpace=wrap;rounded=0;" vertex="1" parent="1">
          <mxGeometry x="170" y="295" width="60" height="30" as="geometry" />
        </mxCell>
        <mxCell id="v6jn_k5VwR1Lf-YIvK5P-13" value="" style="rounded=1;whiteSpace=wrap;html=1;" vertex="1" parent="1">
          <mxGeometry x="300" y="280" width="120" height="60" as="geometry" />
        </mxCell>
        <mxCell id="v6jn_k5VwR1Lf-YIvK5P-18" value="" style="edgeStyle=orthogonalEdgeStyle;rounded=0;orthogonalLoop=1;jettySize=auto;html=1;" edge="1" parent="1" source="v6jn_k5VwR1Lf-YIvK5P-14" target="v6jn_k5VwR1Lf-YIvK5P-16">
          <mxGeometry relative="1" as="geometry" />
        </mxCell>
        <mxCell id="v6jn_k5VwR1Lf-YIvK5P-14" value="Yes" style="text;html=1;align=center;verticalAlign=middle;whiteSpace=wrap;rounded=0;" vertex="1" parent="1">
          <mxGeometry x="330" y="295" width="60" height="30" as="geometry" />
        </mxCell>
        <mxCell id="v6jn_k5VwR1Lf-YIvK5P-16" value="" style="rounded=1;whiteSpace=wrap;html=1;absoluteArcSize=1;arcSize=14;strokeWidth=2;" vertex="1" parent="1">
          <mxGeometry x="310" y="390" width="100" height="100" as="geometry" />
        </mxCell>
        <mxCell id="v6jn_k5VwR1Lf-YIvK5P-19" value="Add new entry with version +1" style="text;html=1;align=center;verticalAlign=middle;whiteSpace=wrap;rounded=0;" vertex="1" parent="1">
          <mxGeometry x="330" y="425" width="60" height="30" as="geometry" />
        </mxCell>
        <mxCell id="v6jn_k5VwR1Lf-YIvK5P-21" value="" style="rounded=1;whiteSpace=wrap;html=1;" vertex="1" parent="1">
          <mxGeometry y="280" width="120" height="60" as="geometry" />
        </mxCell>
        <mxCell id="v6jn_k5VwR1Lf-YIvK5P-23" value="No" style="text;html=1;align=center;verticalAlign=middle;whiteSpace=wrap;rounded=0;" vertex="1" parent="1">
          <mxGeometry x="30" y="290" width="60" height="30" as="geometry" />
        </mxCell>
        <mxCell id="v6jn_k5VwR1Lf-YIvK5P-31" value="" style="edgeStyle=orthogonalEdgeStyle;rounded=0;orthogonalLoop=1;jettySize=auto;html=1;" edge="1" parent="1" source="v6jn_k5VwR1Lf-YIvK5P-27" target="v6jn_k5VwR1Lf-YIvK5P-30">
          <mxGeometry relative="1" as="geometry" />
        </mxCell>
        <mxCell id="v6jn_k5VwR1Lf-YIvK5P-27" value="" style="whiteSpace=wrap;html=1;strokeWidth=2;" vertex="1" parent="1">
          <mxGeometry x="510" y="110" width="120" height="60" as="geometry" />
        </mxCell>
        <mxCell id="v6jn_k5VwR1Lf-YIvK5P-29" value="No" style="text;html=1;align=center;verticalAlign=middle;whiteSpace=wrap;rounded=0;" vertex="1" parent="1">
          <mxGeometry x="540" y="120" width="60" height="30" as="geometry" />
        </mxCell>
        <mxCell id="v6jn_k5VwR1Lf-YIvK5P-30" value="" style="whiteSpace=wrap;html=1;aspect=fixed;" vertex="1" parent="1">
          <mxGeometry x="530" y="230" width="80" height="80" as="geometry" />
        </mxCell>
        <mxCell id="v6jn_k5VwR1Lf-YIvK5P-32" value="Add new entry with version as 1" style="text;html=1;align=center;verticalAlign=middle;whiteSpace=wrap;rounded=0;" vertex="1" parent="1">
          <mxGeometry x="540" y="250" width="60" height="30" as="geometry" />
        </mxCell>
        <mxCell id="v6jn_k5VwR1Lf-YIvK5P-33" value="" style="ellipse;whiteSpace=wrap;html=1;" vertex="1" parent="1">
          <mxGeometry x="330" y="-40" width="120" height="80" as="geometry" />
        </mxCell>
        <mxCell id="v6jn_k5VwR1Lf-YIvK5P-35" value="" style="edgeStyle=orthogonalEdgeStyle;rounded=0;orthogonalLoop=1;jettySize=auto;html=1;" edge="1" parent="1" source="v6jn_k5VwR1Lf-YIvK5P-34" target="v6jn_k5VwR1Lf-YIvK5P-3">
          <mxGeometry relative="1" as="geometry" />
        </mxCell>
        <mxCell id="v6jn_k5VwR1Lf-YIvK5P-34" value="Start" style="text;html=1;align=center;verticalAlign=middle;whiteSpace=wrap;rounded=0;" vertex="1" parent="1">
          <mxGeometry x="360" y="-15" width="60" height="30" as="geometry" />
        </mxCell>
      </root>
    </mxGraphModel>
  </diagram>
</mxfile>
